<svg width="40" height="45" viewBox="0 0 56 50" fill="none" xmlns="http://www.w3.org/2000/svg">
<rect width="56" height="50" rx="3" fill="#3CBD96"/>
<path d="M37.975 15.5223H35.125V13.125H32.75V15.5223H23.25V13.125H20.875V15.5223H18.0635C17.0142 15.5223 16.1635 16.3731 16.1635 17.4223V34.975C16.1635 36.0243 17.0142 36.875 18.0635 36.875H37.975C39.0243 36.875 39.875 36.0243 39.875 34.975V17.4223C39.875 16.3731 39.0243 15.5223 37.975 15.5223ZM37.5 34.5H18.5V22.625H37.5V34.5ZM37.5 20.25H18.5V17.875H37.5V20.25Z" fill="white"/>
<path d="M29.425 25H27.05V27.375H29.425V25Z" fill="white"/>
<path d="M34.175 25H31.8V27.375H34.175V25Z" fill="white"/>
<path d="M29.425 29.75H27.05V32.125H29.425V29.75Z" fill="white"/>
<path d="M24.675 29.75H22.3V32.125H24.675V29.75Z" fill="white"/>
</svg>
