<svg width="40" height="46" viewBox="0 0 56 50" fill="none" xmlns="http://www.w3.org/2000/svg">
<rect width="56" height="50" rx="3" fill="#3CBD96"/>
<path d="M28 39.0625C27.6084 39.0591 27.2219 38.9739 26.8651 38.8125C26.5083 38.6511 26.1892 38.4169 25.9281 38.125C22.5063 34.375 16.75 27.2406 16.75 22.525C16.7074 19.4972 17.8682 16.5762 19.9776 14.4036C22.0869 12.231 24.9723 10.9844 28 10.9375C31.0278 10.9844 33.9131 12.231 36.0224 14.4036C38.1318 16.5762 39.2926 19.4972 39.25 22.525C39.25 27.2125 33.4938 34.3281 30.0719 38.1344C29.81 38.4246 29.4905 38.657 29.1337 38.8168C28.777 38.9766 28.3909 39.0603 28 39.0625ZM28 12.8125C25.4703 12.8618 23.0633 13.9116 21.3061 15.7321C19.5489 17.5525 18.5848 19.9952 18.625 22.525C18.625 25.4688 21.8781 30.8313 27.325 36.8781C27.4125 36.9689 27.5173 37.041 27.6333 37.0903C27.7493 37.1396 27.874 37.165 28 37.165C28.126 37.165 28.2507 37.1396 28.3667 37.0903C28.4827 37.041 28.5875 36.9689 28.675 36.8781C34.1219 30.8313 37.375 25.4688 37.375 22.525C37.4152 19.9952 36.4511 17.5525 34.6939 15.7321C32.9367 13.9116 30.5297 12.8618 28 12.8125Z" fill="white"/>
<path d="M28 27.8125C26.8875 27.8125 25.7999 27.4826 24.8749 26.8645C23.9499 26.2464 23.2289 25.3679 22.8032 24.3401C22.3774 23.3123 22.266 22.1813 22.4831 21.0901C22.7001 19.999 23.2359 18.9967 24.0225 18.21C24.8092 17.4234 25.8115 16.8876 26.9026 16.6706C27.9938 16.4535 29.1248 16.5649 30.1526 16.9907C31.1804 17.4164 32.0589 18.1374 32.677 19.0624C33.2951 19.9874 33.625 21.075 33.625 22.1875C33.625 23.6793 33.0324 25.1101 31.9775 26.165C30.9226 27.2199 29.4918 27.8125 28 27.8125ZM28 18.4375C27.2583 18.4375 26.5333 18.6574 25.9166 19.0695C25.2999 19.4815 24.8193 20.0672 24.5355 20.7524C24.2516 21.4377 24.1774 22.1917 24.3221 22.9191C24.4668 23.6465 24.8239 24.3147 25.3484 24.8392C25.8728 25.3636 26.541 25.7208 27.2684 25.8654C27.9958 26.0101 28.7498 25.9359 29.4351 25.6521C30.1203 25.3682 30.706 24.8876 31.118 24.2709C31.5301 23.6542 31.75 22.9292 31.75 22.1875C31.75 21.1929 31.3549 20.2391 30.6517 19.5359C29.9484 18.8326 28.9946 18.4375 28 18.4375Z" fill="white"/>
</svg>
