<svg width="40" height="46" viewBox="0 0 56 50" fill="none" xmlns="http://www.w3.org/2000/svg">
<rect width="56" height="50" rx="3" fill="#3CBD96"/>
<path d="M36 15.5L35.875 15.375C34.875 14.375 33.375 13.75 32 13.75H24C22.625 13.75 21.25 14.375 20.125 15.375L20 15.5L17.875 18.5C17.125 19.625 16.75 20.875 16.75 22.125V31.25C16.75 34 19 36.25 21.75 36.25H34.25C37 36.25 39.25 34 39.25 31.25V22.125C39.25 20.875 38.875 19.625 38.125 18.5L36 15.5ZM19.875 20L21.875 17.125C22.5 16.5 23.25 16.25 24 16.25H31.875C32.625 16.25 33.375 16.5 34 17.125L36.125 20H30.875H25.125H19.875ZM29.625 22.5V25.625L28.5 25.125C28.375 25 28.125 25 28 25C27.875 25 27.625 25 27.5 25.125L26.375 25.625V22.5H29.625ZM36.75 31.25C36.75 32.625 35.625 33.75 34.25 33.75H21.75C20.375 33.75 19.25 32.625 19.25 31.25V22.5H23.875V27.5C23.875 27.875 24.125 28.375 24.5 28.5C24.875 28.75 25.25 28.75 25.625 28.625L28 27.625L30.375 28.625C30.5 28.75 30.75 28.75 30.875 28.75C31.125 28.75 31.375 28.625 31.5 28.5C31.875 28.25 32.125 27.875 32.125 27.5V22.5H36.75V31.25Z" fill="white"/>
</svg>
